<svg width="39" height="38" viewBox="0 0 39 38" fill="none" xmlns="http://www.w3.org/2000/svg">
<path d="M36.8132 14.667L37.0651 16.2572C37.6533 19.9848 37.0208 23.8027 35.2619 27.1415C33.503 30.4803 30.712 33.161 27.305 34.784C23.8981 36.4069 20.0578 36.885 16.3569 36.1471C12.656 35.4092 9.29285 33.4947 6.76893 30.6891C4.24501 27.8836 2.6956 24.3374 2.35178 20.5793C2.00796 16.8213 2.88815 13.0528 4.86108 9.83586C6.83401 6.61893 9.79397 4.12593 13.2995 2.72868C16.805 1.33142 20.6683 1.10478 24.3132 2.08255M34.875 2.42958L20.3308 22.469L14.3242 18.1049" stroke="#3F2872" stroke-width="2.6" stroke-linecap="round" stroke-linejoin="round"/>
</svg>
