<svg width="74" height="74" viewBox="0 0 74 74" fill="none" xmlns="http://www.w3.org/2000/svg">
<path d="M37.0002 66.3333C44.7798 66.3333 52.2409 63.2428 57.742 57.7418C63.243 52.2407 66.3335 44.7797 66.3335 37C66.3335 29.2203 63.243 21.7592 57.742 16.2582C52.2409 10.7571 44.7798 7.66665 37.0002 7.66665C29.2205 7.66665 21.7594 10.7571 16.2584 16.2582C10.7573 21.7592 7.66683 29.2203 7.66683 37C7.66683 44.7797 10.7573 52.2407 16.2584 57.7418C21.7594 63.2428 29.2205 66.3333 37.0002 66.3333ZM37.0002 0.333313C41.8153 0.333313 46.5833 1.28172 51.0319 3.1244C55.4805 4.96707 59.5226 7.66792 62.9274 11.0727C66.3322 14.4775 69.0331 18.5196 70.8757 22.9683C72.7184 27.4169 73.6668 32.1848 73.6668 37C73.6668 46.7246 69.8037 56.0509 62.9274 62.9272C56.0511 69.8036 46.7248 73.6666 37.0002 73.6666C16.7235 73.6666 0.333496 57.1666 0.333496 37C0.333496 27.2754 4.19658 17.9491 11.0729 11.0727C17.9492 4.1964 27.2756 0.333313 37.0002 0.333313ZM38.8335 18.6666V37.9166L55.3335 47.7066L52.5835 52.2166L33.3335 40.6666V18.6666H38.8335Z" fill="#AFFAF3"/>
</svg>
