<svg width="82" height="82" viewBox="0 0 82 82" fill="none" xmlns="http://www.w3.org/2000/svg">
<mask id="path-1-outside-1_254_5832" maskUnits="userSpaceOnUse" x="0.583496" y="0.583313" width="81" height="81" fill="black">
<rect fill="white" x="0.583496" y="0.583313" width="81" height="81"/>
<path d="M41.0002 26.722L39.0348 28.647C39.2909 28.9086 39.5967 29.1165 39.9341 29.2584C40.2716 29.4003 40.6341 29.4735 41.0002 29.4735C41.3663 29.4735 41.7287 29.4003 42.0662 29.2584C42.4037 29.1165 42.7094 28.9086 42.9655 28.647L41.0002 26.722ZM38.9285 47.248C36.5672 45.51 33.5458 43.0423 31.1442 40.296C28.6508 37.4543 27.2502 34.7886 27.2502 32.6216H21.7502C21.7502 36.875 24.3132 40.8423 27.0045 43.9186C29.7838 47.0903 33.1608 49.833 35.6652 51.6773L38.9285 47.248ZM27.2502 32.6216C27.2502 28.5626 29.0652 26.425 30.9278 25.7283C32.8272 25.017 35.8485 25.3983 39.0348 28.6506L42.9655 24.8006C38.7268 20.4703 33.5018 18.89 29.0028 20.5693C24.4745 22.2633 21.7502 26.865 21.7502 32.6216H27.2502ZM46.3352 51.681C48.8395 49.833 52.2165 47.0976 54.9958 43.9223C57.6872 40.846 60.2502 36.8823 60.2502 32.6253H54.7502C54.7502 34.7923 53.3458 37.458 50.8562 40.2996C48.4545 43.046 45.4295 45.51 43.0718 47.248L46.3352 51.681ZM60.2502 32.6253C60.2502 26.8686 57.5258 22.267 52.9975 20.573C48.4985 18.8936 43.2735 20.474 39.0348 24.8006L42.9655 28.6506C46.1518 25.3946 49.1768 25.0206 51.0688 25.7246C52.9388 26.4213 54.7502 28.5626 54.7502 32.6253H60.2502ZM35.6652 51.681C37.1025 52.7406 38.7085 54.057 41.0002 54.057V48.5533C40.9452 48.5533 40.8828 48.568 40.6298 48.4286C40.0411 48.0698 39.4731 47.6781 38.9285 47.2553L35.6652 51.681ZM43.0718 47.248C42.1808 47.908 41.7298 48.2343 41.3705 48.4286C41.1138 48.568 41.0552 48.5533 41.0002 48.5533V54.057C43.2918 54.057 44.8978 52.737 46.3352 51.681L43.0718 47.248ZM1.5835 35.5C1.5835 36.2293 1.87323 36.9288 2.38895 37.4445C2.90468 37.9602 3.60415 38.25 4.3335 38.25C5.06284 38.25 5.76231 37.9602 6.27804 37.4445C6.79377 36.9288 7.0835 36.2293 7.0835 35.5H1.5835ZM8.2715 54.2953C7.9924 53.6214 7.45702 53.086 6.78314 52.8068C6.10926 52.5276 5.35208 52.5275 4.67816 52.8066C4.00425 53.0857 3.4688 53.6211 3.18963 54.295C2.91045 54.9689 2.9104 55.7261 3.1895 56.4L8.2715 54.2953ZM47.3508 76.8233L49.3382 73.4646L44.6082 70.6633L42.6172 74.022L47.3508 76.8233ZM32.6622 73.4646L34.6495 76.8233L39.3795 74.022L37.3958 70.6633L32.6622 73.4646ZM42.6172 74.022C42.4458 74.2963 42.2075 74.5225 41.9246 74.6793C41.6417 74.8361 41.3236 74.9184 41.0002 74.9184C40.6767 74.9184 40.3586 74.8361 40.0757 74.6793C39.7929 74.5225 39.5545 74.2963 39.3832 74.022L34.6495 76.8233C37.4838 81.6156 44.5128 81.6156 47.3508 76.8233L42.6172 74.022ZM35.5002 7.08331H46.5002V1.58331H35.5002V7.08331ZM74.9168 35.5V39.1666H80.4168V35.5H74.9168ZM25.6112 63.8873C21.0058 63.8066 18.5932 63.5133 16.7012 62.7286L14.6002 67.8106C17.5518 69.0353 20.9105 69.3103 25.5158 69.391L25.6112 63.8873ZM3.1895 56.4C4.24904 58.9581 5.80207 61.2824 7.75992 63.2402C9.71777 65.1981 12.0421 66.7511 14.6002 67.8106L16.7012 62.7286C12.883 61.147 9.8531 58.1135 8.2715 54.2953L3.1895 56.4ZM74.9168 39.1666C74.9168 43.475 74.9168 46.5696 74.7482 49.0116C74.5832 51.428 74.2678 53.0046 73.7325 54.2953L78.8108 56.4C79.6725 54.3246 80.0502 52.0806 80.2372 49.3856C80.4205 46.7126 80.4168 43.4016 80.4168 39.1666H74.9168ZM56.4845 69.3836C61.0898 69.3066 64.4485 69.0353 67.4002 67.8106L65.2955 62.7286C63.4072 63.5133 60.9945 63.8066 56.3928 63.8873L56.4845 69.3836ZM73.7325 54.2953C72.1509 58.1135 69.1173 61.147 65.2992 62.7286L67.4002 67.8106C69.9582 66.7511 72.2826 65.1981 74.2404 63.2402C76.1983 61.2824 77.7513 58.9581 78.8108 56.4L73.7325 54.2953ZM46.5002 7.08331C52.5538 7.08331 56.9025 7.08331 60.2942 7.40965C63.6455 7.72865 65.7758 8.33731 67.4772 9.37865L70.3482 4.68898C67.6385 3.03165 64.5658 2.29098 60.8148 1.93165C57.1042 1.57965 52.4475 1.58331 46.5002 1.58331V7.08331ZM80.4168 35.5C80.4168 29.5526 80.4168 24.8996 80.0648 21.1853C79.7092 17.4343 78.9685 14.358 77.3112 11.652L72.6178 14.523C73.6628 16.2243 74.2715 18.3546 74.5905 21.7096C74.9132 25.0976 74.9168 29.4463 74.9168 35.5H80.4168ZM67.4735 9.37865C69.5715 10.6631 71.3356 12.4259 72.6215 14.523L77.3112 11.652C75.5723 8.8139 73.1862 6.42782 70.3482 4.68898L67.4735 9.37865ZM35.5002 1.58331C29.5528 1.58331 24.8998 1.58331 21.1855 1.93165C17.4345 2.29098 14.3582 3.03165 11.6522 4.68898L14.5232 9.38231C16.2245 8.33731 18.3548 7.72865 21.7098 7.40965C25.0978 7.08698 29.4465 7.08331 35.5002 7.08331V1.58331ZM7.0835 35.5C7.0835 29.4463 7.0835 25.0976 7.40983 21.706C7.72883 18.3546 8.3375 16.2243 9.37883 14.523L4.68916 11.6556C3.03183 14.3616 2.29116 17.4343 1.93183 21.1853C1.5835 24.9033 1.5835 29.5526 1.5835 35.5H7.0835ZM11.6522 4.68898C8.81408 6.42782 6.428 8.81756 4.68916 11.6556L9.3825 14.523C10.6663 12.4268 12.4279 10.664 14.5232 9.37865L11.6522 4.68898ZM37.3922 70.6633C36.6515 69.4056 35.9988 68.2946 35.3608 67.422C34.7071 66.4629 33.8541 65.6562 32.8602 65.057L30.0955 69.8126C30.2678 69.9153 30.5062 70.0986 30.9168 70.6633C31.3605 71.272 31.8628 72.1153 32.6622 73.4646L37.3922 70.6633ZM25.5158 69.3836C27.1292 69.413 28.1448 69.435 28.9222 69.5193C29.6482 69.6 29.9305 69.7173 30.0955 69.8126L32.8602 65.057C31.8355 64.4835 30.698 64.1406 29.5272 64.0523C28.4345 63.9313 27.1218 63.913 25.6112 63.8873L25.5158 69.3836ZM49.3382 73.4646C50.1375 72.119 50.6398 71.272 51.0835 70.6633C51.4942 70.0986 51.7325 69.9153 51.9048 69.8126L49.1402 65.057C48.0768 65.6803 47.3068 66.5053 46.6395 67.422C46.0052 68.2946 45.3488 69.402 44.6045 70.6633L49.3382 73.4646ZM56.3928 63.8873C54.8822 63.913 53.5658 63.9313 52.4732 64.0523C51.3328 64.1806 50.2145 64.4336 49.1402 65.057L51.9048 69.8126C52.0698 69.7173 52.3522 69.6 53.0782 69.5193C53.8555 69.435 54.8748 69.4093 56.4882 69.3836L56.3928 63.8873Z"/>
</mask>
<path d="M41.0002 26.722L39.0348 28.647C39.2909 28.9086 39.5967 29.1165 39.9341 29.2584C40.2716 29.4003 40.6341 29.4735 41.0002 29.4735C41.3663 29.4735 41.7287 29.4003 42.0662 29.2584C42.4037 29.1165 42.7094 28.9086 42.9655 28.647L41.0002 26.722ZM38.9285 47.248C36.5672 45.51 33.5458 43.0423 31.1442 40.296C28.6508 37.4543 27.2502 34.7886 27.2502 32.6216H21.7502C21.7502 36.875 24.3132 40.8423 27.0045 43.9186C29.7838 47.0903 33.1608 49.833 35.6652 51.6773L38.9285 47.248ZM27.2502 32.6216C27.2502 28.5626 29.0652 26.425 30.9278 25.7283C32.8272 25.017 35.8485 25.3983 39.0348 28.6506L42.9655 24.8006C38.7268 20.4703 33.5018 18.89 29.0028 20.5693C24.4745 22.2633 21.7502 26.865 21.7502 32.6216H27.2502ZM46.3352 51.681C48.8395 49.833 52.2165 47.0976 54.9958 43.9223C57.6872 40.846 60.2502 36.8823 60.2502 32.6253H54.7502C54.7502 34.7923 53.3458 37.458 50.8562 40.2996C48.4545 43.046 45.4295 45.51 43.0718 47.248L46.3352 51.681ZM60.2502 32.6253C60.2502 26.8686 57.5258 22.267 52.9975 20.573C48.4985 18.8936 43.2735 20.474 39.0348 24.8006L42.9655 28.6506C46.1518 25.3946 49.1768 25.0206 51.0688 25.7246C52.9388 26.4213 54.7502 28.5626 54.7502 32.6253H60.2502ZM35.6652 51.681C37.1025 52.7406 38.7085 54.057 41.0002 54.057V48.5533C40.9452 48.5533 40.8828 48.568 40.6298 48.4286C40.0411 48.0698 39.4731 47.6781 38.9285 47.2553L35.6652 51.681ZM43.0718 47.248C42.1808 47.908 41.7298 48.2343 41.3705 48.4286C41.1138 48.568 41.0552 48.5533 41.0002 48.5533V54.057C43.2918 54.057 44.8978 52.737 46.3352 51.681L43.0718 47.248ZM1.5835 35.5C1.5835 36.2293 1.87323 36.9288 2.38895 37.4445C2.90468 37.9602 3.60415 38.25 4.3335 38.25C5.06284 38.25 5.76231 37.9602 6.27804 37.4445C6.79377 36.9288 7.0835 36.2293 7.0835 35.5H1.5835ZM8.2715 54.2953C7.9924 53.6214 7.45702 53.086 6.78314 52.8068C6.10926 52.5276 5.35208 52.5275 4.67816 52.8066C4.00425 53.0857 3.4688 53.6211 3.18963 54.295C2.91045 54.9689 2.9104 55.7261 3.1895 56.4L8.2715 54.2953ZM47.3508 76.8233L49.3382 73.4646L44.6082 70.6633L42.6172 74.022L47.3508 76.8233ZM32.6622 73.4646L34.6495 76.8233L39.3795 74.022L37.3958 70.6633L32.6622 73.4646ZM42.6172 74.022C42.4458 74.2963 42.2075 74.5225 41.9246 74.6793C41.6417 74.8361 41.3236 74.9184 41.0002 74.9184C40.6767 74.9184 40.3586 74.8361 40.0757 74.6793C39.7929 74.5225 39.5545 74.2963 39.3832 74.022L34.6495 76.8233C37.4838 81.6156 44.5128 81.6156 47.3508 76.8233L42.6172 74.022ZM35.5002 7.08331H46.5002V1.58331H35.5002V7.08331ZM74.9168 35.5V39.1666H80.4168V35.5H74.9168ZM25.6112 63.8873C21.0058 63.8066 18.5932 63.5133 16.7012 62.7286L14.6002 67.8106C17.5518 69.0353 20.9105 69.3103 25.5158 69.391L25.6112 63.8873ZM3.1895 56.4C4.24904 58.9581 5.80207 61.2824 7.75992 63.2402C9.71777 65.1981 12.0421 66.7511 14.6002 67.8106L16.7012 62.7286C12.883 61.147 9.8531 58.1135 8.2715 54.2953L3.1895 56.4ZM74.9168 39.1666C74.9168 43.475 74.9168 46.5696 74.7482 49.0116C74.5832 51.428 74.2678 53.0046 73.7325 54.2953L78.8108 56.4C79.6725 54.3246 80.0502 52.0806 80.2372 49.3856C80.4205 46.7126 80.4168 43.4016 80.4168 39.1666H74.9168ZM56.4845 69.3836C61.0898 69.3066 64.4485 69.0353 67.4002 67.8106L65.2955 62.7286C63.4072 63.5133 60.9945 63.8066 56.3928 63.8873L56.4845 69.3836ZM73.7325 54.2953C72.1509 58.1135 69.1173 61.147 65.2992 62.7286L67.4002 67.8106C69.9582 66.7511 72.2826 65.1981 74.2404 63.2402C76.1983 61.2824 77.7513 58.9581 78.8108 56.4L73.7325 54.2953ZM46.5002 7.08331C52.5538 7.08331 56.9025 7.08331 60.2942 7.40965C63.6455 7.72865 65.7758 8.33731 67.4772 9.37865L70.3482 4.68898C67.6385 3.03165 64.5658 2.29098 60.8148 1.93165C57.1042 1.57965 52.4475 1.58331 46.5002 1.58331V7.08331ZM80.4168 35.5C80.4168 29.5526 80.4168 24.8996 80.0648 21.1853C79.7092 17.4343 78.9685 14.358 77.3112 11.652L72.6178 14.523C73.6628 16.2243 74.2715 18.3546 74.5905 21.7096C74.9132 25.0976 74.9168 29.4463 74.9168 35.5H80.4168ZM67.4735 9.37865C69.5715 10.6631 71.3356 12.4259 72.6215 14.523L77.3112 11.652C75.5723 8.8139 73.1862 6.42782 70.3482 4.68898L67.4735 9.37865ZM35.5002 1.58331C29.5528 1.58331 24.8998 1.58331 21.1855 1.93165C17.4345 2.29098 14.3582 3.03165 11.6522 4.68898L14.5232 9.38231C16.2245 8.33731 18.3548 7.72865 21.7098 7.40965C25.0978 7.08698 29.4465 7.08331 35.5002 7.08331V1.58331ZM7.0835 35.5C7.0835 29.4463 7.0835 25.0976 7.40983 21.706C7.72883 18.3546 8.3375 16.2243 9.37883 14.523L4.68916 11.6556C3.03183 14.3616 2.29116 17.4343 1.93183 21.1853C1.5835 24.9033 1.5835 29.5526 1.5835 35.5H7.0835ZM11.6522 4.68898C8.81408 6.42782 6.428 8.81756 4.68916 11.6556L9.3825 14.523C10.6663 12.4268 12.4279 10.664 14.5232 9.37865L11.6522 4.68898ZM37.3922 70.6633C36.6515 69.4056 35.9988 68.2946 35.3608 67.422C34.7071 66.4629 33.8541 65.6562 32.8602 65.057L30.0955 69.8126C30.2678 69.9153 30.5062 70.0986 30.9168 70.6633C31.3605 71.272 31.8628 72.1153 32.6622 73.4646L37.3922 70.6633ZM25.5158 69.3836C27.1292 69.413 28.1448 69.435 28.9222 69.5193C29.6482 69.6 29.9305 69.7173 30.0955 69.8126L32.8602 65.057C31.8355 64.4835 30.698 64.1406 29.5272 64.0523C28.4345 63.9313 27.1218 63.913 25.6112 63.8873L25.5158 69.3836ZM49.3382 73.4646C50.1375 72.119 50.6398 71.272 51.0835 70.6633C51.4942 70.0986 51.7325 69.9153 51.9048 69.8126L49.1402 65.057C48.0768 65.6803 47.3068 66.5053 46.6395 67.422C46.0052 68.2946 45.3488 69.402 44.6045 70.6633L49.3382 73.4646ZM56.3928 63.8873C54.8822 63.913 53.5658 63.9313 52.4732 64.0523C51.3328 64.1806 50.2145 64.4336 49.1402 65.057L51.9048 69.8126C52.0698 69.7173 52.3522 69.6 53.0782 69.5193C53.8555 69.435 54.8748 69.4093 56.4882 69.3836L56.3928 63.8873Z" fill="#AFFAF3"/>
<path d="M43.0718 47.248L43.4744 46.9514L42.6692 47.5444L43.0718 47.248ZM47.3508 76.8233L47.0962 77.2536L47.6056 76.3931L47.3508 76.8233ZM14.6002 67.8106L14.1381 67.6196L15.0621 68.002L14.6002 67.8106ZM78.8108 56.4L78.6195 56.8619L79.0023 55.9381L78.8108 56.4ZM32.8602 65.057L33.2925 65.3081L32.4279 64.8057L32.8602 65.057ZM37.2968 49.4626L37.6994 49.7592L39.331 47.5446L38.9285 47.248L38.526 46.9514L36.8943 49.1661L37.2968 49.4626ZM44.7035 49.4626L45.106 49.1661L43.4744 46.9514L43.0718 47.248L42.6693 47.5446L44.3009 49.7592L44.7035 49.4626ZM41.0002 51.3033H41.5002V48.5533H41.0002H40.5002V51.3033H41.0002ZM27.2502 32.6216V32.1216H21.7502V32.6216V33.1216H27.2502V32.6216ZM60.2502 32.6253V32.1253H54.7502V32.6253V33.1253H60.2502V32.6253ZM43.0718 47.248L42.6692 47.5444L45.9325 51.9774L46.3352 51.681L46.7378 51.3846L43.4745 46.9516L43.0718 47.248ZM41.0002 54.057H41.5002V48.5533H41.0002H40.5002V54.057H41.0002ZM44.9858 75.4226L44.731 75.8529L47.096 77.2535L47.3508 76.8233L47.6056 76.3931L45.2406 74.9924L44.9858 75.4226ZM46.9732 72.064L47.2277 71.6336L44.859 70.2329L44.6045 70.6633L44.35 71.0937L46.7187 72.4944L46.9732 72.064ZM35.0272 72.064L34.7724 71.6338L32.4074 73.0344L32.6622 73.4646L32.917 73.8949L35.282 72.4942L35.0272 72.064ZM37.0145 75.4226L37.269 75.853L39.6377 74.4524L39.3832 74.022L39.1287 73.5916L36.76 74.9923L37.0145 75.4226ZM7.0835 35.5V35H1.5835V35.5V36H7.0835V35.5ZM3.1895 56.4L3.38081 56.8619L8.46281 54.7573L8.2715 54.2953L8.08018 53.8334L2.99818 55.938L3.1895 56.4ZM25.5635 66.6336L25.0636 66.625L25.0159 69.375L25.5158 69.3836L26.0158 69.3923L26.0634 66.6423L25.5635 66.6336ZM15.6525 65.2696L15.1905 65.0783L14.1382 67.6193L14.6002 67.8106L15.0621 68.002L16.1144 65.461L15.6525 65.2696ZM76.2698 55.3476L76.0785 55.8096L78.6195 56.8619L78.8108 56.4L79.0021 55.938L76.4611 54.8857L76.2698 55.3476ZM56.4368 66.6336L56.9368 66.6256L56.8928 63.8756L56.3928 63.8836L55.8929 63.8916L55.9369 66.6416L56.4368 66.6336ZM66.3478 65.2696L65.8859 65.461L66.9382 68.002L67.4002 67.8106L67.8621 67.6193L66.8098 65.0783L66.3478 65.2696ZM68.9145 7.03565L68.4881 6.77449L67.0508 9.12116L67.4772 9.38231L67.9035 9.64347L69.3409 7.2968L68.9145 7.03565ZM74.9645 13.0856L75.2252 13.5123L77.5718 12.0787L77.3112 11.652L77.0505 11.2253L74.7038 12.659L74.9645 13.0856ZM13.0895 7.03931L13.5159 6.77816L12.0785 4.43149L11.6522 4.69265L11.2258 4.9538L12.6631 7.30047L13.0895 7.03931ZM7.03583 13.0893L7.2965 12.6626L4.94983 11.229L4.68916 11.6556L4.42849 12.0823L6.77516 13.516L7.03583 13.0893ZM31.4778 67.4366L31.9102 67.6878L33.2925 65.3081L32.8602 65.057L32.4278 64.8058L31.0455 67.1855L31.4778 67.4366ZM42.6172 74.022L42.3625 74.4523L47.0962 77.2536L47.3508 76.8233L47.6055 76.393L42.8718 73.5917L42.6172 74.022ZM46.5002 7.08331H47.0002V1.58331H46.5002H46.0002V7.08331H46.5002ZM35.5002 1.58331H35.0002V7.08331H35.5002H36.0002V1.58331H35.5002ZM74.9168 39.1666V39.6666H80.4168V39.1666V38.6666H74.9168V39.1666ZM80.4168 35.5V35H74.9168V35.5V36H80.4168V35.5ZM16.7012 62.7286L16.2391 62.5376L14.1381 67.6196L14.6002 67.8106L15.0622 68.0017L17.1632 62.9197L16.7012 62.7286ZM73.7325 54.2953L73.5411 54.7572L78.6194 56.8619L78.8108 56.4L79.0023 55.9381L73.9239 53.8334L73.7325 54.2953ZM32.8602 65.057L32.4279 64.8057L29.6632 69.5613L30.0955 69.8126L30.5278 70.0639L33.2924 65.3083L32.8602 65.057ZM51.9048 69.8126L52.3371 69.5613L49.5724 64.8057L49.1402 65.057L48.7079 65.3083L51.4726 70.0639L51.9048 69.8126ZM38.9285 47.248L39.7336 47.8411L40.327 47.0357L39.5213 46.4426L38.9285 47.248ZM41.0002 26.722L41.6999 26.0076L41.0002 25.3222L40.3004 26.0076L41.0002 26.722ZM39.0348 28.647L38.3351 27.9326L37.621 28.632L38.3202 29.3464L39.0348 28.647ZM42.9655 28.647L43.6802 29.3464L44.3794 28.632L43.6652 27.9326L42.9655 28.647ZM43.0718 47.248L42.4785 46.443L42.4766 46.4444L43.0718 47.248ZM31.1442 40.296L31.8969 39.6377L31.8958 39.6364L31.1442 40.296ZM27.0045 43.9186L26.2519 44.5771L26.2524 44.5777L27.0045 43.9186ZM35.6652 51.6773L35.0722 52.4825L35.8772 53.0754L36.4702 52.2705L35.6652 51.6773ZM30.9278 25.7283L31.2781 26.6649L31.2786 26.6648L30.9278 25.7283ZM39.0348 28.6506L38.3205 29.3505L39.0202 30.0647L39.7346 29.365L39.0348 28.6506ZM42.9655 24.8006L43.6652 25.515L44.3794 24.8155L43.6801 24.1011L42.9655 24.8006ZM29.0028 20.5693L28.6531 19.6325L28.6525 19.6327L29.0028 20.5693ZM46.3352 51.681L46.9272 52.4869L46.9289 52.4856L46.3352 51.681ZM54.9958 43.9223L55.7483 44.5809L55.7485 44.5808L54.9958 43.9223ZM50.8562 40.2996L50.104 39.6407L50.1034 39.6414L50.8562 40.2996ZM52.9975 20.573L53.3479 19.6364L53.3472 19.6361L52.9975 20.573ZM39.0348 24.8006L38.3205 24.1008L37.6206 24.8152L38.3351 25.515L39.0348 24.8006ZM42.9655 28.6506L42.2658 29.365L42.9805 30.0651L43.6802 29.3501L42.9655 28.6506ZM51.0688 25.7246L51.4179 24.7876L51.4176 24.7874L51.0688 25.7246ZM35.6652 51.681L34.8603 51.0875L34.2668 51.8924L35.0718 52.4859L35.6652 51.681ZM40.6298 48.4286L40.1094 49.2825L40.1282 49.294L40.1474 49.3046L40.6298 48.4286ZM38.9285 47.2553L39.5417 46.4654L38.732 45.8368L38.1236 46.6618L38.9285 47.2553ZM41.3705 48.4286L40.8948 47.549L40.8934 47.5498L41.3705 48.4286ZM47.3508 76.8233L48.2113 77.3329L48.2115 77.3326L47.3508 76.8233ZM44.6045 70.6633L43.7433 70.1551L43.2357 71.0152L44.0952 71.5239L44.6045 70.6633ZM39.3832 74.022L40.2312 73.4921L39.714 72.6642L38.8739 73.1614L39.3832 74.022ZM8.2715 54.2953L7.34759 54.6779L7.34762 54.678L8.2715 54.2953ZM3.1895 56.4L2.26559 56.7826L2.26561 56.7826L3.1895 56.4ZM25.5158 69.3836L24.516 69.3663L24.4987 70.3653L25.4977 70.3835L25.5158 69.3836ZM14.6002 67.8106L14.9834 66.887L14.9828 66.8868L14.6002 67.8106ZM78.8108 56.4L77.8873 56.0165L77.8869 56.0173L78.8108 56.4ZM77.3112 11.652L78.1639 11.1297L78.1638 11.1296L77.3112 11.652ZM4.68916 11.6556L3.83648 11.1332L3.8364 11.1334L4.68916 11.6556ZM32.8602 65.057L33.3765 64.2006L33.3626 64.1922L33.3486 64.1844L32.8602 65.057ZM44.6082 70.6633L45.1177 69.8029L44.2577 69.2935L43.7479 70.1534L44.6082 70.6633ZM42.6172 74.022L43.4652 74.5518L43.4714 74.542L43.4774 74.5319L42.6172 74.022ZM39.3795 74.022L39.8891 74.8824L40.7485 74.3734L40.2405 73.5134L39.3795 74.022ZM37.3958 70.6633L38.2569 70.1548L37.7479 69.293L36.8865 69.8027L37.3958 70.6633ZM16.7012 62.7286L17.0843 61.8049L17.0839 61.8048L16.7012 62.7286ZM25.5158 69.391L25.4983 70.3908L26.4984 70.4083L26.5157 69.4083L25.5158 69.391ZM74.7482 49.0116L73.7505 48.9427L73.7505 48.9435L74.7482 49.0116ZM73.7325 54.2953L72.8088 53.9122L72.8086 53.9126L73.7325 54.2953ZM80.2372 49.3856L81.2348 49.4549L81.2348 49.4541L80.2372 49.3856ZM56.4845 69.3836L55.4846 69.4003L55.5013 70.4002L56.5012 70.3835L56.4845 69.3836ZM65.2955 62.7286L66.2194 62.346L65.8363 61.421L64.9118 61.8052L65.2955 62.7286ZM65.2992 62.7286L64.9165 61.8048L63.9932 62.1872L64.375 63.1107L65.2992 62.7286ZM60.2942 7.40965L60.1984 8.40505L60.1994 8.40515L60.2942 7.40965ZM67.4772 9.37865L66.9551 10.2316L67.808 10.7536L68.33 9.90077L67.4772 9.37865ZM70.3482 4.68898L70.8706 3.83629L70.8699 3.8359L70.3482 4.68898ZM60.8148 1.93165L60.9102 0.936205L60.9093 0.936117L60.8148 1.93165ZM80.0648 21.1853L81.0604 21.091L81.0604 21.0909L80.0648 21.1853ZM72.6178 14.523L72.096 13.6699L71.2414 14.1927L71.7657 15.0464L72.6178 14.523ZM74.5905 21.7096L73.595 21.8043L73.595 21.8045L74.5905 21.7096ZM67.4735 9.37865L66.6209 8.85604L66.098 9.70908L66.9514 10.2315L67.4735 9.37865ZM72.6215 14.523L71.769 15.0457L72.2914 15.8976L73.1436 15.3758L72.6215 14.523ZM21.1855 1.93165L21.0921 0.936015L21.0901 0.936205L21.1855 1.93165ZM11.6522 4.68898L11.1299 3.83621L11.1297 3.8363L11.6522 4.68898ZM14.5232 9.38231L13.6701 9.90414L14.1929 10.7587L15.0465 10.2344L14.5232 9.38231ZM21.7098 7.40965L21.8045 8.40516L21.8046 8.40514L21.7098 7.40965ZM7.40983 21.706L8.40523 21.8018L8.40533 21.8007L7.40983 21.706ZM9.37883 14.523L10.2317 15.045L10.754 14.1917L9.90047 13.6698L9.37883 14.523ZM1.93183 21.1853L0.936384 21.09L0.93619 21.092L1.93183 21.1853ZM9.3825 14.523L8.86115 15.3763L9.71356 15.8971L10.2353 15.0453L9.3825 14.523ZM14.5232 9.37865L15.0461 10.231L15.8977 9.70863L15.376 8.85652L14.5232 9.37865ZM37.3922 70.6633L37.9017 71.5237L38.76 71.0154L38.2538 70.1559L37.3922 70.6633ZM35.3608 67.422L34.5345 67.9852L34.5438 67.9988L34.5536 68.0122L35.3608 67.422ZM30.0955 69.8126L30.6073 68.9535L30.5958 68.9468L30.0955 69.8126ZM30.9168 70.6633L30.1081 71.2515L30.1087 71.2523L30.9168 70.6633ZM28.9222 69.5193L29.0326 68.5254L29.03 68.5251L28.9222 69.5193ZM29.5272 64.0523L29.4171 65.0462L29.4345 65.0482L29.4519 65.0495L29.5272 64.0523ZM51.0835 70.6633L51.8916 71.2523L51.8922 71.2515L51.0835 70.6633ZM51.9048 69.8126L51.4045 68.9467L51.393 68.9535L51.9048 69.8126ZM49.1402 65.057L48.6383 64.192L48.6344 64.1943L49.1402 65.057ZM46.6395 67.422L45.831 66.8334L45.8306 66.834L46.6395 67.422ZM52.4732 64.0523L52.3631 63.0584L52.3613 63.0586L52.4732 64.0523ZM53.0782 69.5193L52.9703 68.5251L52.9677 68.5254L53.0782 69.5193ZM56.4882 69.3836L56.5041 70.3835L57.5054 70.3676L57.488 69.3663L56.4882 69.3836ZM41.0002 26.722L40.3004 26.0076L38.3351 27.9326L39.0348 28.647L39.7346 29.3614L41.6999 27.4364L41.0002 26.722ZM39.0348 28.647L38.3202 29.3464C38.6694 29.7032 39.0863 29.9867 39.5465 30.1802L39.9341 29.2584L40.3218 28.3366C40.107 28.2463 39.9125 28.114 39.7495 27.9475L39.0348 28.647ZM39.9341 29.2584L39.5465 30.1802C40.0067 30.3738 40.5009 30.4735 41.0002 30.4735V29.4735V28.4735C40.7672 28.4735 40.5366 28.4269 40.3218 28.3366L39.9341 29.2584ZM41.0002 29.4735V30.4735C41.4994 30.4735 41.9936 30.3738 42.4538 30.1802L42.0662 29.2584L41.6785 28.3366C41.4638 28.4269 41.2331 28.4735 41.0002 28.4735V29.4735ZM42.0662 29.2584L42.4538 30.1802C42.914 29.9867 43.331 29.7032 43.6802 29.3464L42.9655 28.647L42.2508 27.9475C42.0879 28.114 41.8933 28.2463 41.6785 28.3366L42.0662 29.2584ZM42.9655 28.647L43.6652 27.9326L41.6999 26.0076L41.0002 26.722L40.3004 27.4364L42.2658 29.3614L42.9655 28.647ZM38.9285 47.248L39.5213 46.4426C37.1865 44.7242 34.2303 42.3059 31.8969 39.6377L31.1442 40.296L30.3914 40.9543C32.8614 43.7787 35.9478 46.2958 38.3357 48.0533L38.9285 47.248ZM31.1442 40.296L31.8958 39.6364C29.4405 36.8381 28.2502 34.4093 28.2502 32.6216H27.2502H26.2502C26.2502 35.168 27.8611 38.0705 30.3925 40.9555L31.1442 40.296ZM21.7502 32.6216H20.7502C20.7502 37.2545 23.5239 41.4588 26.2519 44.5771L27.0045 43.9186L27.7571 43.2602C25.1025 40.2258 22.7502 36.4954 22.7502 32.6216H21.7502ZM27.0045 43.9186L26.2524 44.5777C29.0993 47.8265 32.5407 50.6182 35.0722 52.4825L35.6652 51.6773L36.2582 50.8721C33.781 49.0478 30.4683 46.3541 27.7566 43.2596L27.0045 43.9186ZM35.6652 51.6773L36.4702 52.2705L39.7336 47.8411L38.9285 47.248L38.1234 46.6548L34.8601 51.0842L35.6652 51.6773ZM27.2502 32.6216H28.2502C28.2502 28.8783 29.8934 27.1829 31.2781 26.6649L30.9278 25.7283L30.5775 24.7917C28.2369 25.6671 26.2502 28.247 26.2502 32.6216H27.2502ZM30.9278 25.7283L31.2786 26.6648C32.7088 26.1291 35.3291 26.2971 38.3205 29.3505L39.0348 28.6506L39.7491 27.9508C36.3679 24.4995 32.9455 23.9048 30.5771 24.7918L30.9278 25.7283ZM39.0348 28.6506L39.7346 29.365L43.6652 25.515L42.9655 24.8006L42.2658 24.0862L38.3351 27.9362L39.0348 28.6506ZM42.9655 24.8006L43.6801 24.1011C39.2526 19.5779 33.6274 17.7757 28.6531 19.6325L29.0028 20.5693L29.3525 21.5062C33.3762 20.0043 38.201 21.3628 42.2509 25.5001L42.9655 24.8006ZM29.0028 20.5693L28.6525 19.6327C23.637 21.5089 20.7502 26.5611 20.7502 32.6216H21.7502H22.7502C22.7502 27.1688 25.3119 23.0177 29.3532 21.5059L29.0028 20.5693ZM46.3352 51.681L46.9289 52.4856C49.4588 50.6188 52.9008 47.8342 55.7483 44.5809L54.9958 43.9223L54.2434 43.2637C51.5322 46.3611 48.2202 49.0472 45.7414 50.8763L46.3352 51.681ZM54.9958 43.9223L55.7485 44.5808C58.4763 41.4626 61.2502 37.2619 61.2502 32.6253H60.2502H59.2502C59.2502 36.5027 56.898 40.2293 54.2432 43.2639L54.9958 43.9223ZM54.7502 32.6253H53.7502C53.7502 34.4126 52.5566 36.8413 50.104 39.6407L50.8562 40.2996L51.6083 40.9586C54.135 38.0747 55.7502 35.172 55.7502 32.6253H54.7502ZM50.8562 40.2996L50.1034 39.6414C47.7705 42.3091 44.811 44.7235 42.4785 46.4431L43.0718 47.248L43.6652 48.0529C46.048 46.2964 49.1385 43.7829 51.6089 40.9579L50.8562 40.2996ZM60.2502 32.6253H61.2502C61.2502 26.5648 58.3633 21.5126 53.3479 19.6364L52.9975 20.573L52.6471 21.5096C56.6884 23.0214 59.2502 27.1725 59.2502 32.6253H60.2502ZM52.9975 20.573L53.3472 19.6361C48.373 17.7794 42.748 19.5815 38.3205 24.1008L39.0348 24.8006L39.7492 25.5005C43.799 21.3665 48.624 20.0079 52.6478 21.5098L52.9975 20.573ZM39.0348 24.8006L38.3351 25.515L42.2658 29.365L42.9655 28.6506L43.6652 27.9362L39.7346 24.0862L39.0348 24.8006ZM42.9655 28.6506L43.6802 29.3501C46.67 26.2949 49.2948 26.1315 50.7201 26.6619L51.0688 25.7246L51.4176 24.7874C49.0589 23.9098 45.6336 24.4944 42.2508 27.9512L42.9655 28.6506ZM51.0688 25.7246L50.7197 26.6617C52.1094 27.1795 53.7502 28.8766 53.7502 32.6253H54.7502H55.7502C55.7502 28.2487 53.7682 25.6632 51.4179 24.7876L51.0688 25.7246ZM35.6652 51.681L35.0718 52.4859C36.4382 53.4933 38.3182 55.057 41.0002 55.057V54.057V53.057C39.0988 53.057 37.7668 51.988 36.2586 50.8761L35.6652 51.681ZM41.0002 48.5533V47.5533C40.9863 47.5533 40.9746 47.5535 40.969 47.5537C40.9665 47.5537 40.963 47.5538 40.9625 47.5538C40.9612 47.5538 40.9611 47.5538 40.9616 47.5538C40.9639 47.5538 40.9793 47.5535 41.0004 47.5545C41.0224 47.5555 41.0463 47.5576 41.0714 47.5613C41.096 47.5649 41.1176 47.5695 41.1357 47.5741C41.1706 47.5829 41.188 47.5909 41.1824 47.5885C41.1767 47.5861 41.1549 47.5762 41.1122 47.5527L40.6298 48.4286L40.1474 49.3046C40.3079 49.393 40.4713 49.4688 40.6428 49.5124C40.7369 49.5363 40.825 49.5485 40.909 49.5524C40.9475 49.5541 40.9789 49.5538 40.9961 49.5535C41.0252 49.553 41.0039 49.5533 41.0002 49.5533V48.5533ZM40.6298 48.4286L41.1503 47.5747C40.5936 47.2355 40.0566 46.8651 39.5417 46.4654L38.9285 47.2553L38.3153 48.0452C38.8896 48.4911 39.4886 48.9042 40.1094 49.2825L40.6298 48.4286ZM38.9285 47.2553L38.1236 46.6618L34.8603 51.0875L35.6652 51.681L36.47 52.2744L39.7333 47.8488L38.9285 47.2553ZM43.0718 47.248L42.4766 46.4444C41.5614 47.1224 41.1768 47.3965 40.8948 47.549L41.3705 48.4286L41.8462 49.3083C42.2829 49.0721 42.8003 48.6936 43.6671 48.0515L43.0718 47.248ZM41.3705 48.4286L40.8934 47.5498C40.8486 47.5741 40.8251 47.5848 40.8177 47.588C40.8104 47.5911 40.8269 47.5834 40.8613 47.5746C40.8792 47.57 40.9009 47.5653 40.926 47.5616C40.9515 47.5578 40.976 47.5556 40.9987 47.5545C41.0204 47.5535 41.0364 47.5538 41.0388 47.5538C41.0393 47.5538 41.0393 47.5538 41.038 47.5538C41.0374 47.5538 41.034 47.5537 41.0314 47.5537C41.0258 47.5535 41.0141 47.5533 41.0002 47.5533V48.5533V49.5533C40.9963 49.5533 40.9749 49.553 41.0039 49.5535C41.021 49.5538 41.0527 49.5542 41.0916 49.5523C41.1765 49.5484 41.2647 49.5358 41.3581 49.5119C41.5268 49.4686 41.6885 49.3939 41.8476 49.3075L41.3705 48.4286ZM41.0002 54.057V55.057C43.6821 55.057 45.5635 53.4888 46.9272 52.4869L46.3352 51.681L45.7431 50.8751C44.2321 51.9852 42.9015 53.057 41.0002 53.057V54.057ZM1.5835 35.5H0.583496C0.583496 36.4945 0.978585 37.4484 1.68185 38.1516L2.38895 37.4445L3.09606 36.7374C2.76787 36.4092 2.5835 35.9641 2.5835 35.5H1.5835ZM2.38895 37.4445L1.68185 38.1516C2.38511 38.8549 3.33893 39.25 4.3335 39.25V38.25V37.25C3.86937 37.25 3.42425 37.0656 3.09606 36.7374L2.38895 37.4445ZM4.3335 38.25V39.25C5.32806 39.25 6.28189 38.8549 6.98515 38.1516L6.27804 37.4445L5.57093 36.7374C5.24274 37.0656 4.79762 37.25 4.3335 37.25V38.25ZM6.27804 37.4445L6.98515 38.1516C7.68841 37.4484 8.0835 36.4945 8.0835 35.5H7.0835H6.0835C6.0835 35.9641 5.89912 36.4092 5.57093 36.7374L6.27804 37.4445ZM8.2715 54.2953L9.1954 53.9127C8.81482 52.9937 8.08479 52.2636 7.16588 51.8829L6.78314 52.8068L6.4004 53.7306C6.82926 53.9083 7.16997 54.2491 7.34759 54.6779L8.2715 54.2953ZM6.78314 52.8068L7.16588 51.8829C6.24698 51.5022 5.21449 51.5022 4.29554 51.8827L4.67816 52.8066L5.06079 53.7305C5.48967 53.5529 5.97154 53.553 6.4004 53.7306L6.78314 52.8068ZM4.67816 52.8066L4.29554 51.8827C3.37659 52.2633 2.64646 52.9934 2.26577 53.9123L3.18963 54.295L4.11348 54.6777C4.29115 54.2489 4.63191 53.9082 5.06079 53.7305L4.67816 52.8066ZM3.18963 54.295L2.26577 53.9123C1.88508 54.8312 1.88502 55.8637 2.26559 56.7826L3.1895 56.4L4.1134 56.0174C3.93578 55.5885 3.93581 55.1066 4.11348 54.6777L3.18963 54.295ZM47.3508 76.8233L48.2115 77.3326L50.1988 73.9739L49.3382 73.4646L48.4775 72.9554L46.4902 76.3141L47.3508 76.8233ZM49.3382 73.4646L49.8477 72.6042L45.1177 69.8029L44.6082 70.6633L44.0986 71.5237L48.8286 74.3251L49.3382 73.4646ZM44.6082 70.6633L43.7479 70.1534L41.7569 73.512L42.6172 74.022L43.4774 74.5319L45.4684 71.1732L44.6082 70.6633ZM32.6622 73.4646L31.8015 73.9739L33.7889 77.3326L34.6495 76.8233L35.5101 76.3141L33.5228 72.9554L32.6622 73.4646ZM34.6495 76.8233L35.1591 77.6837L39.8891 74.8824L39.3795 74.022L38.8699 73.1616L34.1399 75.9629L34.6495 76.8233ZM39.3795 74.022L40.2405 73.5134L38.2569 70.1548L37.3958 70.6633L36.5348 71.1719L38.5185 74.5305L39.3795 74.022ZM37.3958 70.6633L36.8865 69.8027L32.1529 72.604L32.6622 73.4646L33.1715 74.3252L37.9051 71.5239L37.3958 70.6633ZM42.6172 74.022L41.7691 73.4921C41.6876 73.6225 41.5743 73.7301 41.4397 73.8047L41.9246 74.6793L42.4094 75.5539C42.8406 75.3148 43.204 74.97 43.4652 74.5518L42.6172 74.022ZM41.9246 74.6793L41.4397 73.8047C41.3052 73.8792 41.154 73.9184 41.0002 73.9184V74.9184V75.9184C41.4932 75.9184 41.9782 75.7929 42.4094 75.5539L41.9246 74.6793ZM41.0002 74.9184V73.9184C40.8464 73.9184 40.6951 73.8792 40.5606 73.8047L40.0757 74.6793L39.5909 75.5539C40.0221 75.7929 40.5071 75.9184 41.0002 75.9184V74.9184ZM40.0757 74.6793L40.5606 73.8047C40.4261 73.7301 40.3127 73.6225 40.2312 73.4921L39.3832 74.022L38.5351 74.5518C38.7963 74.97 39.1597 75.3148 39.5909 75.5539L40.0757 74.6793ZM39.3832 74.022L38.8739 73.1614L34.1402 75.9627L34.6495 76.8233L35.1588 77.6839L39.8925 74.8826L39.3832 74.022ZM34.6495 76.8233L33.7888 77.3324C37.0105 82.7797 44.9863 82.7787 48.2113 77.3329L47.3508 76.8233L46.4904 76.3138C44.0394 80.4526 37.9572 80.4516 35.5102 76.3142L34.6495 76.8233ZM35.5002 7.08331V8.08331H46.5002V7.08331V6.08331H35.5002V7.08331ZM46.5002 1.58331V0.583315H35.5002V1.58331V2.58331H46.5002V1.58331ZM74.9168 35.5H73.9168V39.1666H74.9168H75.9168V35.5H74.9168ZM80.4168 39.1666H81.4168V35.5H80.4168H79.4168V39.1666H80.4168ZM25.6112 63.8873L25.6287 62.8875C21.0219 62.8068 18.7828 62.5094 17.0843 61.8049L16.7012 62.7286L16.3181 63.6524C18.4035 64.5173 20.9898 64.8065 25.5936 64.8872L25.6112 63.8873ZM14.6002 67.8106L14.2169 68.7343C17.3609 70.0387 20.8913 70.3101 25.4983 70.3908L25.5158 69.391L25.5333 68.3911C20.9297 68.3105 17.7428 68.0319 14.9834 66.887L14.6002 67.8106ZM25.5158 69.391L26.5157 69.4083L26.611 63.9046L25.6112 63.8873L24.6113 63.87L24.516 69.3737L25.5158 69.391ZM3.1895 56.4L2.26561 56.7826C3.3754 59.4621 5.0021 61.8966 7.05281 63.9473L7.75992 63.2402L8.46703 62.5331C6.60204 60.6681 5.12267 58.4541 4.11338 56.0173L3.1895 56.4ZM7.75992 63.2402L7.05281 63.9473C9.10353 65.998 11.5381 67.6247 14.2175 68.7345L14.6002 67.8106L14.9828 66.8868C12.5461 65.8775 10.332 64.3981 8.46703 62.5331L7.75992 63.2402ZM16.7012 62.7286L17.0839 61.8048C13.5111 60.3248 10.6757 57.4862 9.19537 53.9126L8.2715 54.2953L7.34762 54.678C9.03055 58.7408 12.2548 61.9692 16.3185 63.6525L16.7012 62.7286ZM74.9168 39.1666H73.9168C73.9168 43.4895 73.9163 46.5433 73.7505 48.9427L74.7482 49.0116L75.7458 49.0806C75.9174 46.5959 75.9168 43.4605 75.9168 39.1666H74.9168ZM74.7482 49.0116L73.7505 48.9435C73.5889 51.3104 73.2847 52.7647 72.8088 53.9122L73.7325 54.2953L74.6562 54.6784C75.2509 53.2446 75.5775 51.5455 75.7458 49.0798L74.7482 49.0116ZM78.8108 56.4L79.7344 56.7834C80.6554 54.5652 81.0443 52.1992 81.2348 49.4549L80.2372 49.3856L79.2396 49.3164C79.056 51.9621 78.6896 54.0841 77.8873 56.0165L78.8108 56.4ZM80.2372 49.3856L81.2348 49.4541C81.4211 46.7388 81.4168 43.3874 81.4168 39.1666H80.4168H79.4168C79.4168 43.4159 79.4199 46.6865 79.2395 49.3172L80.2372 49.3856ZM56.4845 69.3836L56.5012 70.3835C61.1078 70.3065 64.6389 70.039 67.7834 68.7343L67.4002 67.8106L67.0169 66.887C64.2581 68.0316 61.0718 68.3068 56.4678 68.3838L56.4845 69.3836ZM67.4002 67.8106L68.3241 67.428L66.2194 62.346L65.2955 62.7286L64.3716 63.1113L66.4763 68.1933L67.4002 67.8106ZM65.2955 62.7286L64.9118 61.8052C63.2173 62.5093 60.9787 62.8068 56.3753 62.8875L56.3928 63.8873L56.4104 64.8872C61.0103 64.8065 63.597 64.5173 65.6792 63.6521L65.2955 62.7286ZM56.3928 63.8873L55.393 63.904L55.4846 69.4003L56.4845 69.3836L57.4844 69.367L57.3927 63.8706L56.3928 63.8873ZM73.7325 54.2953L72.8086 53.9126C71.3285 57.4858 68.4896 60.3247 64.9165 61.8048L65.2992 62.7286L65.6819 63.6525C69.7451 61.9694 72.9733 58.7412 74.6564 54.678L73.7325 54.2953ZM65.2992 62.7286L64.375 63.1107L66.476 68.1927L67.4002 67.8106L68.3243 67.4286L66.2233 62.3466L65.2992 62.7286ZM67.4002 67.8106L67.7828 68.7345C70.4622 67.6247 72.8968 65.998 74.9475 63.9473L74.2404 63.2402L73.5333 62.5331C71.6683 64.3981 69.4542 65.8775 67.0175 66.8868L67.4002 67.8106ZM74.2404 63.2402L74.9475 63.9473C76.9982 61.8966 78.6249 59.4621 79.7347 56.7826L78.8108 56.4L77.8869 56.0173C76.8777 58.4541 75.3983 60.6681 73.5333 62.5331L74.2404 63.2402ZM46.5002 7.08331V8.08331C52.5743 8.08331 56.8659 8.08441 60.1984 8.40505L60.2942 7.40965L60.3899 6.41424C56.939 6.08221 52.5333 6.08331 46.5002 6.08331V7.08331ZM60.2942 7.40965L60.1994 8.40515C63.4782 8.71724 65.4374 9.30263 66.9551 10.2316L67.4772 9.37865L67.9992 8.52573C66.1142 7.372 63.8128 6.74005 60.3889 6.41415L60.2942 7.40965ZM67.4772 9.37865L68.33 9.90077L71.201 5.2111L70.3482 4.68898L69.4953 4.16686L66.6243 8.85652L67.4772 9.37865ZM70.3482 4.68898L70.8699 3.8359C67.9774 2.06669 64.7343 1.30254 60.9102 0.936205L60.8148 1.93165L60.7195 2.92709C64.3974 3.27942 67.2996 3.9966 69.8264 5.54206L70.3482 4.68898ZM60.8148 1.93165L60.9093 0.936117C57.1404 0.578598 52.4282 0.583315 46.5002 0.583315V1.58331V2.58331C52.4668 2.58331 57.0679 2.5807 60.7204 2.92718L60.8148 1.93165ZM80.4168 35.5H81.4168C81.4168 29.571 81.4179 24.8632 81.0604 21.091L80.0648 21.1853L79.0693 21.2797C79.4158 24.9361 79.4168 29.5342 79.4168 35.5H80.4168ZM80.0648 21.1853L81.0604 21.0909C80.6977 17.2666 79.9336 14.0192 78.1639 11.1297L77.3112 11.652L76.4584 12.1743C78.0033 14.6968 78.7206 17.6021 79.0693 21.2797L80.0648 21.1853ZM77.3112 11.652L76.7893 10.7989L72.096 13.6699L72.6178 14.523L73.1396 15.376L77.833 12.505L77.3112 11.652ZM72.6178 14.523L71.7657 15.0464C72.6975 16.5633 73.2829 18.5216 73.595 21.8043L74.5905 21.7096L75.586 21.615C75.2601 18.1877 74.6282 15.8853 73.4699 13.9996L72.6178 14.523ZM74.5905 21.7096L73.595 21.8045C73.9121 25.134 73.9168 29.4268 73.9168 35.5H74.9168H75.9168C75.9168 29.4658 75.9142 25.0613 75.586 21.6148L74.5905 21.7096ZM67.4735 9.37865L66.9514 10.2315C68.9147 11.4335 70.5656 13.0832 71.769 15.0457L72.6215 14.523L73.474 14.0002C72.1056 11.7686 70.2282 9.89263 67.9956 8.52579L67.4735 9.37865ZM72.6215 14.523L73.1436 15.3758L77.8333 12.5049L77.3112 11.652L76.789 10.7991L72.0994 13.6701L72.6215 14.523ZM77.3112 11.652L78.1638 11.1296C76.3425 8.15686 73.8433 5.65761 70.8706 3.8363L70.3482 4.68898L69.8257 5.54167C72.5292 7.19803 74.8021 9.47094 76.4585 12.1744L77.3112 11.652ZM70.3482 4.68898L69.4956 4.16637L66.6209 8.85604L67.4735 9.37865L68.3261 9.90126L71.2007 5.21159L70.3482 4.68898ZM35.5002 1.58331V0.583315C29.571 0.583315 24.8638 0.582308 21.0921 0.936017L21.1855 1.93165L21.2789 2.92728C24.9359 2.58432 29.5346 2.58331 35.5002 2.58331V1.58331ZM21.1855 1.93165L21.0901 0.936205C17.2665 1.3025 14.0192 2.06657 11.1299 3.83621L11.6522 4.68898L12.1745 5.54175C14.6971 3.99672 17.6025 3.27946 21.2809 2.92709L21.1855 1.93165ZM11.6522 4.68898L10.7991 5.21081L13.6701 9.90414L14.5232 9.38231L15.3762 8.86049L12.5052 4.16715L11.6522 4.68898ZM14.5232 9.38231L15.0465 10.2344C16.5635 9.30267 18.5218 8.71728 21.8045 8.40516L21.7098 7.40965L21.6152 6.41414C18.1878 6.74002 15.8855 7.37196 13.9998 8.53022L14.5232 9.38231ZM21.7098 7.40965L21.8046 8.40514C25.1342 8.08804 29.427 8.08331 35.5002 8.08331V7.08331V6.08331C29.466 6.08331 25.0614 6.08592 21.615 6.41415L21.7098 7.40965ZM7.0835 35.5H8.0835C8.0835 29.4258 8.0846 25.1342 8.40523 21.8018L7.40983 21.706L6.41443 21.6102C6.08239 25.0611 6.0835 29.4668 6.0835 35.5H7.0835ZM7.40983 21.706L8.40533 21.8007C8.71742 18.5219 9.30281 16.5627 10.2317 15.045L9.37883 14.523L8.52591 14.0009C7.37218 15.8859 6.74023 18.1873 6.41433 21.6112L7.40983 21.706ZM9.37883 14.523L9.90047 13.6698L5.2108 10.8025L4.68916 11.6556L4.16752 12.5088L8.85719 15.3761L9.37883 14.523ZM4.68916 11.6556L3.8364 11.1334C2.06684 14.0226 1.30271 17.266 0.936387 21.09L1.93183 21.1853L2.92727 21.2807C3.27962 17.6026 3.99682 14.7007 5.54193 12.1779L4.68916 11.6556ZM1.93183 21.1853L0.93619 21.092C0.582493 24.8673 0.583496 29.5708 0.583496 35.5H1.5835H2.5835C2.5835 29.5345 2.5845 24.9393 2.92747 21.2786L1.93183 21.1853ZM11.6522 4.68898L11.1297 3.8363C8.15658 5.65789 5.65751 8.16099 3.83648 11.1332L4.68916 11.6556L5.54185 12.1781C7.19849 9.47414 9.47157 7.19775 12.1746 5.54167L11.6522 4.68898ZM4.68916 11.6556L4.16782 12.509L8.86115 15.3763L9.3825 14.523L9.90384 13.6696L5.2105 10.8023L4.68916 11.6556ZM9.3825 14.523L10.2353 15.0453C11.4367 13.0836 13.0852 11.4339 15.0461 10.231L14.5232 9.37865L14.0003 8.52625C11.7705 9.89406 9.89595 11.77 8.52972 14.0007L9.3825 14.523ZM14.5232 9.37865L15.376 8.85652L12.505 4.16686L11.6522 4.68898L10.7993 5.2111L13.6703 9.90077L14.5232 9.37865ZM37.3922 70.6633L38.2538 70.1559C37.522 68.9131 36.8418 67.7533 36.1681 66.8318L35.3608 67.422L34.5536 68.0122C35.1559 68.836 35.781 69.8981 36.5305 71.1708L37.3922 70.6633ZM35.3608 67.422L36.1871 66.8587C35.4524 65.7808 34.4937 64.8741 33.3765 64.2006L32.8602 65.057L32.3439 65.9134C33.2146 66.4383 33.9619 67.145 34.5345 67.9852L35.3608 67.422ZM30.0955 69.8126L29.5837 70.6717C29.6038 70.6837 29.748 70.7564 30.1081 71.2515L30.9168 70.6633L31.7256 70.0751C31.2643 69.4409 30.9319 69.1469 30.6073 68.9535L30.0955 69.8126ZM30.9168 70.6633L30.1087 71.2523C30.5177 71.8134 30.9921 72.6074 31.8018 73.9743L32.6622 73.4646L33.5225 72.955C32.7336 71.6232 32.2033 70.7306 31.7249 70.0743L30.9168 70.6633ZM32.6622 73.4646L33.1717 74.3251L37.9017 71.5237L37.3922 70.6633L36.8826 69.8029L32.1526 72.6042L32.6622 73.4646ZM25.5158 69.3836L25.4977 70.3835C27.1289 70.4131 28.0921 70.4351 28.8143 70.5135L28.9222 69.5193L29.03 68.5251C28.1976 68.4348 27.1294 68.4128 25.534 68.3838L25.5158 69.3836ZM28.9222 69.5193L28.8117 70.5132C29.4634 70.5856 29.5948 70.6783 29.5952 70.6785L30.0955 69.8126L30.5958 68.9468C30.2662 68.7564 29.8329 68.6143 29.0326 68.5254L28.9222 69.5193ZM32.8602 65.057L33.3486 64.1844C32.1969 63.5398 30.9184 63.1544 29.6024 63.0551L29.5272 64.0523L29.4519 65.0495C30.4777 65.1269 31.4741 65.4272 32.3718 65.9296L32.8602 65.057ZM29.5272 64.0523L29.6372 63.0584C28.4873 62.931 27.1201 62.9128 25.6281 62.8875L25.6112 63.8873L25.5942 64.8872C27.1236 64.9132 28.3817 64.9316 29.4171 65.0462L29.5272 64.0523ZM25.6112 63.8873L24.6113 63.87L24.516 69.3663L25.5158 69.3836L26.5157 69.401L26.611 63.9047L25.6112 63.8873ZM49.3382 73.4646L50.1979 73.9753C51.0091 72.6097 51.4826 71.8134 51.8916 71.2523L51.0835 70.6633L50.2754 70.0743C49.797 70.7305 49.2659 71.6283 48.4784 72.9539L49.3382 73.4646ZM51.0835 70.6633L51.8922 71.2515C52.2523 70.7564 52.3966 70.6837 52.4166 70.6717L51.9048 69.8126L51.393 68.9535C51.0684 69.1469 50.736 69.4409 50.2748 70.0751L51.0835 70.6633ZM49.1402 65.057L48.6344 64.1943C47.4128 64.9104 46.547 65.8499 45.831 66.8334L46.6395 67.422L47.448 68.0105C48.0666 67.1607 48.7409 66.4502 49.6459 65.9197L49.1402 65.057ZM46.6395 67.422L45.8306 66.834C45.1625 67.7531 44.4807 68.9055 43.7433 70.1551L44.6045 70.6633L45.4657 71.1715C46.217 69.8984 46.8478 68.8361 47.4484 68.0099L46.6395 67.422ZM44.6045 70.6633L44.0952 71.5239L48.8289 74.3252L49.3382 73.4646L49.8475 72.604L45.1138 69.8027L44.6045 70.6633ZM56.3928 63.8873L56.3758 62.8875C54.884 62.9128 53.513 62.931 52.3631 63.0584L52.4732 64.0523L52.5832 65.0462C53.6186 64.9316 54.8803 64.9132 56.4098 64.8872L56.3928 63.8873ZM52.4732 64.0523L52.3613 63.0586C51.1485 63.1951 49.8783 63.4726 48.6383 64.192L49.1402 65.057L49.642 65.9219C50.5507 65.3947 51.5171 65.1662 52.585 65.046L52.4732 64.0523ZM51.9048 69.8126L52.4051 70.6785C52.4055 70.6783 52.5369 70.5856 53.1886 70.5132L53.0782 69.5193L52.9677 68.5254C52.1674 68.6143 51.7341 68.7564 51.4045 68.9468L51.9048 69.8126ZM53.0782 69.5193L53.186 70.5135C53.9083 70.4351 54.8779 70.4094 56.5041 70.3835L56.4882 69.3836L56.4723 68.3838C54.8718 68.4092 53.8027 68.4348 52.9703 68.5251L53.0782 69.5193ZM56.4882 69.3836L57.488 69.3663L57.3927 63.87L56.3928 63.8873L55.393 63.9047L55.4883 69.401L56.4882 69.3836Z" fill="#AFFAF3" mask="url(#path-1-outside-1_254_5832)"/>
</svg>
