<svg width="134" height="121" viewBox="0 0 134 121" fill="none" xmlns="http://www.w3.org/2000/svg">
<path d="M131.991 28.6299C131.97 27.9 131.939 27.1449 131.898 26.3667C124.732 18.7643 116.057 12.6062 106.356 8.37637C96.8739 4.24235 86.4006 1.94953 75.3855 1.94953C64.3711 1.94953 53.8974 4.24235 44.4155 8.37637C34.7146 12.6062 26.0398 18.7639 18.8739 26.3663C18.8329 27.1425 18.8022 27.8956 18.7811 28.6247C18.758 29.4305 18.7461 30.3581 18.7461 31.4083C18.7461 50.6401 24.4535 68.5282 34.2611 83.4594C44.2662 98.6921 58.5446 110.858 75.3863 118.246C92.2275 110.858 106.506 98.6921 116.511 83.4594C126.318 68.5282 132.026 50.6401 132.026 31.4083C132.026 30.3593 132.014 29.4349 131.991 28.6299Z" fill="#F1F2F2"/>
<path d="M113.014 78.4595C104.198 92.6304 91.4991 104.337 76.0238 111.931L75.3856 112.245L74.7474 111.931C59.2714 104.337 46.5728 92.6301 37.7578 78.4599C28.9838 64.3552 24.0512 47.8088 24.0512 30.4462L24.0567 30.435L24.0691 28.9141L24.0739 28.3015L24.5078 27.8795C31.3393 21.2426 39.2939 16.0736 47.9289 12.5685C56.5476 9.07097 65.8456 7.22538 75.3852 7.22538C84.9252 7.22538 94.2232 9.07097 102.842 12.5685C111.477 16.0736 119.431 21.243 126.263 27.8803L126.696 28.3015L126.702 28.9145L126.714 30.435L126.72 30.4462C126.72 47.8084 121.787 64.3548 113.014 78.4595ZM133.889 27.5748C133.867 26.8205 133.835 26.0403 133.792 25.2357C126.386 17.3781 117.42 11.0136 107.394 6.64199C97.5939 2.36982 86.7695 -5.78132e-05 75.3852 -5.78132e-05C64.0014 -5.78132e-05 53.1765 2.36982 43.3769 6.64199C33.3507 11.0136 24.3848 17.3777 16.9789 25.2349C16.9363 26.0375 16.9044 26.8157 16.8825 27.5692C16.8586 28.4022 16.8467 29.3609 16.8467 30.4462C16.8467 50.3228 22.7456 68.8107 32.8821 84.2426C43.2224 99.9861 57.9794 112.56 75.3856 120.195C92.7914 112.56 107.549 99.9861 117.889 84.2426C128.026 68.8107 133.924 50.3228 133.924 30.4462C133.924 29.3625 133.913 28.4065 133.889 27.5748Z" fill="#183E4B"/>
<path d="M91.9489 63.8165C90.9069 68.9344 90.3798 84.2797 90.0752 99.2097C97.9633 92.965 104.667 85.4225 109.931 76.9624C114.006 70.4102 117.217 63.3074 119.444 55.8312L97.505 51.1813C97.0253 56.1981 95.107 60.6208 91.9489 63.8165Z" fill="#AFFAF2"/>
<path d="M55.1998 61.1212C50.0557 56.7017 49.5484 54.8921 48.5483 52.9586C47.3105 50.5712 47.7926 45.4353 48.737 40.8453L47.2547 40.531C37.4682 38.4571 31.8078 38.8017 27.5723 39.5328C28.9037 53.0241 33.3382 65.7935 40.2859 76.9625C45.5928 85.494 52.3661 93.0924 60.341 99.3679C60.0655 82.0772 59.1307 66.2443 56.9253 62.504C56.9249 62.5016 55.1998 61.1212 55.1998 61.1212Z" fill="#AFFAF2"/>
<path d="M50.3364 24.1613L55.2555 25.0043C55.3885 24.0743 55.664 23.1838 56.1765 22.382C56.8414 21.3419 63.3686 18.8606 67.7255 20.7549C68.1217 20.9282 68.7571 21.4257 68.9638 22.2603C69.1605 21.1642 69.4535 20.3695 69.8831 20.1208C72.2895 18.75 80.6606 18.7827 82.3133 21.2201C82.5092 21.4596 82.6127 22.3365 82.6394 23.6275C84.4267 21.9819 89.3111 22.6795 91.5623 23.7006C94.1494 24.9811 94.208 26.2194 93.6235 28.3708C95.4351 27.9068 99.9349 29.405 100.851 32.8171L122.884 36.5925C123.005 34.7174 123.067 32.8299 123.067 30.932H123.073L123.065 30.0487C116.673 23.9421 109.26 19.1696 101.221 15.9065C93.031 12.5827 84.1878 10.8281 75.1076 10.8281C66.0282 10.8281 57.1846 12.5827 48.9947 15.9065C46.5389 16.9032 44.142 18.0412 41.8145 19.3146C43.8144 21.5922 46.4119 23.4206 50.3364 24.1613Z" fill="#AFFAF2"/>
<path d="M40.2983 35.6372C36.9344 35.067 31.8982 34.6705 27.2801 35.7187C27.0539 35.7702 26.8282 35.8237 26.6044 35.8824C21.8083 37.1338 15.7728 38.7398 10.5587 35.2727C16.2693 37.1346 20.4861 31.3299 20.4861 31.3299L23.2676 33.2218C24.511 34.0684 26.1525 33.8739 27.1706 32.8365C27.2988 32.7059 27.4175 32.5626 27.5238 32.4057L31.9599 25.8566L32.9648 24.3732C33.8782 23.0248 33.4996 21.1856 32.1279 20.3107L29.3959 18.5685L33.0146 13.1735C34.9381 14.5 35.8052 17.9456 38.5783 21.2011C40.1307 23.0236 42.2803 24.7861 45.5467 26.0838C43.0308 25.6957 42.35 26.3358 42.35 26.3358C42.35 26.3358 37.5985 30.0226 40.2983 35.6372ZM26.6761 28.546L27.4342 27.39C26.702 26.4017 25.1389 24.8975 22.0707 24.1149C22.0707 24.1149 25.8902 23.486 28.3041 26.0651L29.0395 24.9442C28.3881 23.9747 26.8266 22.2845 23.512 21.4391C23.512 21.4391 27.4318 20.7903 29.839 23.4872C29.9353 22.9769 29.7741 22.4721 29.3728 22.2074L24.1861 18.7841C24.9657 18.0303 26.0673 17.8186 26.8736 18.3509L31.1051 21.1436C32.0674 21.7789 32.2386 23.2216 31.4873 24.3668L28.7019 28.6115L27.1491 30.9777L27.1344 31.0005C26.4631 32.0235 25.2842 32.456 24.3537 32.0846L25.8221 29.8473C25.0282 28.8666 23.4798 27.5178 20.6298 26.7906C20.6298 26.7906 24.257 26.1913 26.6761 28.546ZM43.2904 27.9362L54.81 30.0202C54.9884 29.9419 55.1692 29.8653 55.3523 29.7918C55.2699 28.9021 55.1775 27.9738 55.156 27.051L49.9952 26.1669C45.3055 25.282 42.2787 23.0168 40.0168 20.3335C38.4481 18.4727 37.2473 16.4103 36.1154 14.4673C36.1154 14.4673 33.2814 10.0809 28.3392 8.4062C28.4116 8.43055 28.4793 8.4613 28.5514 8.48726L23.389 16.1371L16.812 26.4089L12.4304 26.5015L5.57266 21.7146L3.1137 19.998L2.20194 20.028C2.20194 20.028 0.731176 27.6539 6.32715 33.4742C7.63108 34.8306 9.31844 36.0888 11.4979 37.1298C18.2517 40.3554 21.2406 38.5358 27.396 37.4996C31.7513 36.7661 37.6925 36.4251 47.674 38.5406L49.1818 38.86C49.9753 35.5857 50.9257 32.8948 51.5002 32.1852C51.6069 32.0543 51.7363 31.9213 51.8821 31.7879L47.8862 31.0688C45.9656 30.7062 44.7134 31.5647 44.3523 33.4906V33.491C44.2727 33.9142 44.2762 34.3331 44.3435 34.7348L42.1016 34.2736C39.9862 30.6707 43.2904 27.9362 43.2904 27.9362Z" fill="#E8BB7B"/>
<path d="M20.9167 7.20889C15.7236 7.37979 11.7505 9.3843 11.7505 9.3843L11.9965 10.3654L14.2234 11.7406L18.8706 14.61L20.6176 14.4367L21.6938 15.0972L26.4481 7.79986C24.5362 7.30033 22.6578 7.15179 20.9167 7.20889Z" fill="#E8BB7B"/>
<path d="M31.1052 21.1437L26.8736 18.3509C26.0674 17.8186 24.9657 18.0303 24.1861 18.7842L29.3728 22.2074C29.7742 22.4722 29.9354 22.9765 29.839 23.4872C27.4318 20.7899 23.5121 21.4392 23.5121 21.4392C26.8267 22.2845 28.3882 23.9743 29.0396 24.9443L28.3042 26.0651C25.8898 23.4856 22.0708 24.1145 22.0708 24.1145C25.1389 24.8975 26.702 26.4017 27.4342 27.39L26.6758 28.546C24.257 26.1909 20.6299 26.7906 20.6299 26.7906C23.4798 27.5178 25.0282 28.8662 25.8221 29.8473L24.3538 32.0846C25.2842 32.456 26.4632 32.0235 27.1344 31.0001L27.1492 30.9778L28.7019 28.6115L31.4874 24.3669C32.2387 23.2217 32.0675 21.779 31.1052 21.1437Z" fill="#183E4B"/>
<path d="M38.5788 21.2009C35.8057 17.9457 34.9385 14.4997 33.015 13.1732L29.3963 18.5682L32.1284 20.3104C33.4996 21.1853 33.8786 23.0245 32.9653 24.373L31.9603 25.8564L27.5242 32.4054C27.4179 32.5623 27.2988 32.7057 27.171 32.8362C26.1529 33.8736 24.5114 34.0681 23.268 33.222L20.4865 31.3297C20.4865 31.3297 16.2697 37.1344 10.5591 35.2724C15.7732 38.7396 21.8088 37.1336 26.6048 35.8821C26.8286 35.8238 27.0544 35.7699 27.2805 35.7188C31.8986 34.6702 36.9348 35.0668 40.2988 35.637C37.5989 30.0223 42.3504 26.3355 42.3504 26.3355C42.3504 26.3355 43.0312 25.6958 45.5471 26.0836C42.2807 24.7858 40.1311 23.0233 38.5788 21.2009Z" fill="#183E4B"/>
<path d="M126.574 44.2316L122.175 43.4014L120.438 43.0736L119.314 42.8616C118.332 43.3874 117.594 44.321 117.377 45.4806C117.158 46.6462 117.512 47.791 118.243 48.6395L121.141 49.1866L123.138 49.5631C124.127 49.0388 124.871 48.1016 125.09 46.9361C125.209 46.3 125.153 45.6723 124.963 45.0937C125.163 45.1316 125.365 45.1695 125.571 45.2083C127.811 47.9307 124.529 49.8254 124.529 49.8254C129.716 48.6938 126.574 44.2316 126.574 44.2316Z" fill="#183E4B"/>
<path d="M68.1734 29.0183C67.962 27.2602 67.6459 25.7752 67.3481 24.6291C67.055 23.5015 66.7799 22.7021 66.6402 22.2956C66.2209 21.0649 61.1202 21.3508 58.9766 23.1641C60.8821 22.5983 63.836 22.4701 65.5624 23.0519C65.5624 23.0519 62.2597 23.1817 59.5599 24.3736C58.1875 24.9785 57.3581 25.7991 56.9715 26.9359C56.7402 27.61 56.6642 28.3926 56.7223 29.3082C56.7725 29.2926 56.823 29.2771 56.8736 29.2619C58.5183 28.762 60.6257 28.2668 61.733 28.5348C63.4136 28.9388 65.6133 30.3141 68.4016 31.9832C68.3649 30.9266 68.2845 29.9363 68.1734 29.0183Z" fill="#E8BB7B"/>
<path d="M76.6129 38.6838C75.5912 37.9694 74.2459 37.1193 72.7214 36.248C70.6183 36.5838 69.7806 37.5753 69.7528 38.2389C69.7532 38.2637 69.7512 38.2868 69.754 38.2817L69.7548 38.2837C69.9439 39.2124 72.2153 40.86 74.6022 41.3128C75.8317 41.5492 77.091 41.4669 78.1107 40.8053C78.3006 40.6807 78.4336 40.4794 78.42 40.265C78.4109 40.1268 78.3376 40.0326 78.2353 39.9332C77.8861 39.6121 77.3279 39.1825 76.6129 38.6838Z" fill="#E8BB7B"/>
<path d="M94.2224 31.5157C95.3858 31.5988 96.9338 32.4134 97.4295 33.4803C95.4471 32.1035 93.5754 32.73 93.5754 32.73C93.4018 32.9852 92.7341 34.3556 91.9545 36.0818C90.5407 39.2124 88.757 43.5137 88.8784 44.46C89.0158 45.5198 89.7313 46.3643 90.9631 46.5795C91.5381 46.6898 91.7638 46.6546 91.9529 46.6119C91.0049 46.0776 90.0132 45.2339 89.5752 44.2316C90.4463 45.3185 92.2265 45.9886 93.1028 46.0069C93.7394 45.5054 94.3753 44.7268 94.9809 43.8012C97.1448 40.4925 98.9189 35.3056 98.948 34.1719C99.0117 31.8092 95.8938 29.8618 94.2224 31.5157Z" fill="#E8BB7B"/>
<path d="M80.8315 22.7699C80.6312 19.9675 73.7118 20.8532 71.2306 21.9026C73.629 21.5671 77.8494 21.8622 79.6621 22.8956C75.5803 22.3502 71.9078 23.8188 71.9078 23.8188C74.8899 23.5641 76.4849 23.6411 78.1862 24.4897C77.1861 24.3335 75.7523 24.3355 74.4229 24.5352C73.0549 24.7408 71.7979 25.1557 71.2397 25.8265C70.576 26.6251 70.3148 27.7791 70.2017 29.3939C70.1285 30.4102 70.1126 31.6093 70.0942 33.0184C72.1005 34.2671 75.2642 36.5064 77.1968 37.9203C78.136 38.6095 78.7838 39.1034 78.8694 39.1937C79.6191 39.8166 79.6625 40.6587 79.5829 41.6155C80.1519 39.5483 80.505 36.4628 80.7033 33.3299C80.7475 32.6754 80.7833 32.0162 80.8108 31.3665C80.8932 29.5541 80.9271 27.7975 80.9255 26.2889C80.9243 24.8219 80.8888 23.5892 80.8315 22.7699Z" fill="#E8BB7B"/>
<path d="M124.529 49.8257C124.529 49.8257 127.81 47.931 125.57 45.2081C125.365 45.1694 125.164 45.1314 124.963 45.0939C125.153 45.6725 125.209 46.3002 125.09 46.9363C124.871 48.1015 124.127 49.039 123.138 49.5633L121.141 49.1864L118.244 48.6397C117.512 47.7908 117.158 46.6464 117.377 45.4808C117.594 44.3212 118.333 43.3877 119.314 42.8618L120.438 43.0738L122.175 43.4016L126.574 44.2318C126.574 44.2318 129.716 48.694 124.529 49.8257ZM129.914 40.9719C129.542 40.1912 129.228 39.7436 129.228 39.7436L122.729 38.6299L100.953 34.8984C100.95 34.9172 100.948 34.9356 100.945 34.9543C100.803 35.6244 100.498 36.8315 99.964 38.1899L114.348 40.7926C117.361 46.3721 112.413 48.7336 112.413 48.7336L109.744 48.1849C110.385 47.673 110.854 46.9395 111.017 46.069C111.378 44.1431 110.114 42.2876 108.194 41.925L98.9945 40.2691C98.7385 40.7335 98.4542 41.1943 98.1389 41.6371C98.1389 41.6371 98.2539 41.5584 98.457 41.3724C97.5906 43.079 96.5276 44.6311 95.3474 45.8218C94.3354 46.8432 93.2373 47.5991 92.1025 47.9569L95.6074 48.7L120.003 53.8702L126.327 55.2107C126.327 55.2107 126.334 55.2063 126.347 55.1979C126.639 55.0118 130.06 52.7414 130.936 48.0727C131.504 45.0444 130.608 42.4285 129.914 40.9719Z" fill="#E8BB7B"/>
<path d="M89.6201 25.0056C86.6957 24.3536 84.8108 26.0374 84.8108 26.0374C87.9391 26.1373 89.8108 27.0944 90.9411 28.2288C89.0165 27.3835 86.5802 26.9794 85.0362 27.7764C84.8196 27.8882 84.6201 28.0228 84.4354 28.1765C82.6314 29.6795 82.283 33.0265 81.9748 34.9779C81.4306 38.4279 80.9727 41.6423 80.4336 43.8097C81.1447 45.1833 83.8545 46.3657 85.9742 45.6649C85.9941 45.6545 85.9953 45.6521 86.0105 45.6497C86.0264 45.6425 86.0813 45.6126 86.0969 45.6034C87.6906 44.4858 89.4807 38.9829 90.656 34.1094C91.4412 30.8539 91.952 27.879 91.9472 26.6799C91.9437 25.696 90.7982 25.2684 89.6201 25.0056Z" fill="#E8BB7B"/>
<path d="M86.1844 48.7819C84.6086 49.2739 82.8933 50.1999 81.3306 51.9684C83.5451 51.5651 85.2333 52.1241 86.0574 52.64C81.8136 52.0906 78.2171 54.2508 76.8383 59.3851C72.8298 49.7698 66.2707 47.7154 59.6204 46.8074C59.8836 46.7315 62.4166 45.9712 62.5364 44.2498C62.5818 43.5993 62.4851 42.9365 62.2155 42.1794C61.8182 41.0466 61.0374 39.7077 59.7757 37.8841C62.5038 40.7966 65.3824 42.4793 68.0544 43.2659C69.0111 43.547 69.9432 43.7147 70.8291 43.7802C71.488 43.8293 72.1218 43.8249 72.7246 43.7702C74.8894 43.5726 76.6567 42.7476 77.715 41.5808C76.6954 42.0057 75.4416 42.054 74.189 41.8544C71.4064 41.4127 68.6353 39.748 68.4752 38.2602C68.5142 37.0679 70.2052 36.0608 71.9084 35.7322C68.142 33.3116 64.088 30.4119 61.8568 29.872C59.9094 29.4016 55.2447 31.0887 53.8652 33.2449C53.975 33.1715 58.0708 30.7964 62.0105 30.802C61.7437 30.8519 56.0777 31.9165 53.9129 34.837C52.8797 36.2325 52.1456 38.0941 51.5846 40.2024C50.9638 42.5236 50.5506 45.1446 50.1707 47.7741C49.4286 52.9279 52.8586 56.241 54.8569 58.0155C54.2044 56.7473 53.7373 55.3257 53.6533 54.2704C55.1205 57.1669 58.0214 60.4265 61.6338 62.984C63.455 64.2734 65.4572 65.3839 67.5479 66.1797C69.8325 67.049 72.2226 67.5425 74.5979 67.481C73.9832 67.6735 74.2858 68.1255 73.1941 68.296C72.6625 80.9636 68.4011 96.5413 68.4011 96.5413C69.129 90.0406 70.3095 70.4638 70.1419 68.2744C68.0798 68.3239 65.5325 67.9362 62.665 66.4724C63.6735 71.619 63.3682 85.9433 62.6515 101.124C66.5474 103.983 70.7088 106.536 75.108 108.739C79.7313 106.424 84.0914 103.723 88.1569 100.685C87.6233 89.2072 87.171 77.0687 87.2666 70.4734C87.3052 67.81 86.489 67.2454 84.597 67.7817C83.7593 68.0189 82.2324 68.0568 80.8321 67.9929C80.7039 69.5398 80.9496 85.9413 81.624 91.748C81.624 91.748 78.9429 78.6719 79.1527 67.8611C78.7124 67.8096 78.3433 67.7489 78.0945 67.6847C79.1018 67.4642 80.3213 67.1508 81.5715 66.7842C84.7754 65.8443 88.1784 64.5529 88.7155 63.569C89.6364 61.8815 89.0212 60.7523 89.0133 60.7411C89.2191 60.8306 89.4178 60.9556 89.6276 61.0534C90.0763 61.263 90.5768 61.3481 91.3078 60.6912C92.6297 59.5029 92.8893 58.1221 92.851 56.907C92.8212 56.0197 92.3111 55.1708 91.1187 54.1865C91.5598 54.3351 91.9257 54.6058 92.2904 54.8038C94.137 55.8177 95.2463 52.8712 95.5246 50.7617L86.1844 48.7819Z" fill="#E8BB7B"/>
<path d="M130.935 48.0728C130.06 52.741 126.639 55.0115 126.347 55.198C126.334 55.206 126.327 55.2103 126.327 55.2103L120.003 53.8703L95.607 48.6997L92.1025 47.957C93.2372 47.5992 94.3353 46.8433 95.3474 45.8219C96.5275 44.6312 97.5902 43.079 98.4569 41.372C98.2539 41.5581 98.1388 41.6368 98.1388 41.6368C98.4541 41.1939 98.7384 40.7335 98.9944 40.2687L108.194 41.9247C110.114 42.2872 111.378 44.1424 111.017 46.0687C110.854 46.9391 110.385 47.6731 109.744 48.1846L112.413 48.7336C112.413 48.7336 117.361 46.3717 114.348 40.7922L99.9639 38.19C100.498 36.8315 100.803 35.6244 100.945 34.9544C100.948 34.9356 100.95 34.9172 100.953 34.8985L122.729 38.6296L129.228 39.7433C129.228 39.7433 129.542 40.1913 129.914 40.9715C130.608 42.4282 131.504 45.044 130.935 48.0728ZM90.9634 46.579C89.7315 46.3641 89.016 45.5196 88.8787 44.4594C88.7572 43.5131 90.5406 39.2122 91.9548 36.0816C92.7343 34.3554 93.402 32.9846 93.5756 32.7299C93.5756 32.7299 95.4473 32.1033 97.4297 33.4801C96.934 32.4128 95.386 31.5986 94.2226 31.5156C95.8937 29.8612 99.0119 31.8091 98.9482 34.1713C98.9192 35.3054 97.145 40.4923 94.9811 43.801C94.3755 44.7266 93.7397 45.5052 93.103 46.0068C92.2267 45.9884 90.4466 45.3184 89.5754 44.2314C90.0134 45.2337 91.0052 46.0774 91.9532 46.6117C91.7641 46.6544 91.5383 46.6896 90.9634 46.579ZM86.0964 45.6035C86.0809 45.6122 86.0264 45.6426 86.0104 45.6494C85.9949 45.6518 85.9937 45.6546 85.9742 45.665C83.8545 46.3653 81.1447 45.183 80.4332 43.8094C80.9727 41.6419 81.4301 38.4275 81.9744 34.9779C82.2826 33.0261 82.6309 29.6792 84.4353 28.1766C84.6197 28.0228 84.8192 27.8883 85.0358 27.7765C86.5802 26.9791 89.016 27.3831 90.9407 28.2289C89.8103 27.0941 87.9387 26.1373 84.8104 26.0375C84.8104 26.0375 86.6952 24.3536 89.62 25.0057C90.7982 25.2684 91.9432 25.6957 91.9468 26.6796C91.952 27.8791 91.4412 30.8539 90.656 34.109C89.4807 38.9826 87.6906 44.4854 86.0964 45.6035ZM78.8692 39.1938C78.7836 39.1032 78.1358 38.6092 77.1966 37.9204C75.264 36.5061 72.1003 34.2672 70.0945 33.0181C70.1124 31.609 70.1283 30.4099 70.2016 29.3941C70.3146 27.7789 70.5758 26.6249 71.2395 25.8263C71.7977 25.1558 73.0551 24.7405 74.4231 24.5349C75.7521 24.3353 77.1863 24.3337 78.186 24.4894C76.4847 23.6409 74.8897 23.5638 71.9076 23.8185C71.9076 23.8185 75.5805 22.3499 79.662 22.8958C77.8492 21.862 73.6288 21.5673 71.2308 21.9027C73.7116 20.8529 80.631 19.9676 80.8313 22.7696C80.8886 23.5893 80.9241 24.822 80.9253 26.2887C80.9269 27.7976 80.893 29.5542 80.8106 31.3662C80.7831 32.0163 80.7473 32.6751 80.7031 33.33C80.5048 36.4626 80.1521 39.548 79.5831 41.6152C79.6623 40.6589 79.619 39.8163 78.8692 39.1938ZM78.1112 40.8054C77.0911 41.4667 75.8318 41.5489 74.6027 41.3125C72.2158 40.8597 69.944 39.2122 69.7548 38.2834L69.7544 38.2814C69.7512 38.287 69.7536 38.2634 69.7528 38.2387C69.7807 37.5754 70.6188 36.5835 72.7218 36.2477C74.2459 37.119 75.5913 37.9691 76.6129 38.6835C77.328 39.1822 77.8862 39.6119 78.2358 39.9329C78.3377 40.0324 78.411 40.1266 78.4201 40.2647C78.4341 40.4792 78.3011 40.6804 78.1112 40.8054ZM61.7325 28.5347C60.6257 28.2668 58.5179 28.7619 56.8735 29.2619C56.8226 29.2771 56.772 29.2926 56.7222 29.3082C56.6637 28.3926 56.7402 27.61 56.9715 26.9359C57.3581 25.7991 58.1874 24.9785 59.5594 24.3736C62.2593 23.1817 65.5623 23.0519 65.5623 23.0519C63.836 22.4701 60.8821 22.5983 58.9766 23.1641C61.1202 21.3508 66.2209 21.0649 66.6401 22.2956C66.7799 22.7021 67.055 23.5015 67.3476 24.6291C67.6454 25.7751 67.962 27.2602 68.1734 29.0183C68.2845 29.9363 68.3649 30.9266 68.4015 31.9831C65.6133 30.314 63.4135 28.9388 61.7325 28.5347ZM54.8103 30.0202L43.2903 27.9358C43.2903 27.9358 39.9865 30.6706 42.1015 34.2732L44.3434 34.7344C44.2761 34.3331 44.273 33.9142 44.3522 33.4905C44.7137 31.5643 45.9655 30.7062 47.8861 31.0687L51.882 31.7879C51.7362 31.9213 51.6072 32.0542 51.5005 32.1852C50.9256 32.8948 49.9752 35.5853 49.1817 38.86L47.6739 38.5405C37.6924 36.4246 31.7516 36.766 27.3959 37.4992C21.2405 38.5358 18.2516 40.355 11.4978 37.1294C9.31834 36.0888 7.63098 34.8302 6.32705 33.4742C0.731078 27.6535 2.20184 20.0275 2.20184 20.0275L3.1136 19.998L5.57256 21.7142L12.4307 26.5015L16.8119 26.4088L23.3889 16.1367L28.5513 8.48682C28.4796 8.46086 28.4115 8.43051 28.3391 8.40576C33.2817 10.0808 36.1153 14.4672 36.1153 14.4672C37.2472 16.4102 38.448 18.4722 40.0168 20.3334C42.2786 23.0167 45.3054 25.2816 49.9951 26.1665L55.1563 27.0509C55.1778 27.9733 55.2698 28.9021 55.3522 29.7918C55.1691 29.8652 54.9883 29.9419 54.8103 30.0202ZM18.8707 14.6098L14.2235 11.7404L11.9967 10.3651L11.7506 9.38405C11.7506 9.38405 15.7237 7.37954 20.9168 7.20864C22.6583 7.15154 24.5367 7.30008 26.4483 7.80001L21.694 15.0969L20.6182 14.4365L18.8707 14.6098ZM130.887 38.5729L130.431 37.9228L130.401 37.8805L122.884 36.5923L100.851 32.8169C99.9349 29.4048 95.4354 27.9066 93.6234 28.3706C94.2079 26.2192 94.1494 24.9809 91.5626 23.7004C89.3111 22.6793 84.4266 21.9817 82.6397 23.6273C82.6126 22.3363 82.5095 21.4595 82.3132 21.2199C80.6605 18.7825 72.2894 18.7498 69.883 20.1202C69.4534 20.369 69.1604 21.164 68.9637 22.2601C68.7571 21.4255 68.122 20.9276 67.7259 20.7547C63.3689 18.86 56.8413 21.3417 56.1764 22.3819C55.664 23.1837 55.3885 24.0741 55.2555 25.0041L50.3364 24.1612C46.4122 23.4204 43.8143 21.592 41.8148 19.3144C40.2513 17.5339 39.0536 15.4783 37.8735 13.4534L37.8178 13.3611C37.6864 13.1583 34.5526 8.3826 29.0306 6.49268C27.3879 5.85979 25.7523 5.48803 24.1732 5.30276C17.0882 4.4714 11.1415 7.41428 10.8381 7.56762L9.38722 8.30034L10.2309 11.6641L12.4916 13.0601L18.3897 16.7017L20.1404 16.528L20.562 16.7872L15.6891 24.3975L13.0478 24.4534L5.56221 19.2281L3.72037 17.9428L0.51807 18.047L0.210698 19.641C0.119523 20.1274 -1.62158 30.0701 6.73077 36.5812C7.84161 37.4468 9.13041 38.2522 10.6255 38.9662C16.6506 41.844 20.2646 41.0626 24.45 40.1581C25.4238 39.9477 26.4479 39.7265 27.5722 39.5324C31.8077 38.8013 37.4682 38.4567 47.2547 40.5307L48.737 40.8449C47.7926 45.435 47.3104 50.5708 48.5483 52.9583C49.5484 54.8917 50.0557 56.7018 55.1997 61.1209C55.1997 61.1209 56.9249 62.5013 56.9253 62.5037C59.1306 66.244 60.0655 82.0768 60.341 99.3675C60.5473 99.5297 60.7543 99.6914 60.9625 99.8519C61.5199 100.282 62.0829 100.706 62.6515 101.123C63.3681 85.9433 63.6735 71.619 62.665 66.4724C65.5329 67.9362 68.0802 68.3239 70.1422 68.2744C70.3094 70.4638 69.1289 90.0406 68.4015 96.5413C68.4015 96.5413 72.6625 80.9636 73.194 68.296C74.2858 68.1251 73.9832 67.6731 74.5979 67.481C72.2226 67.5425 69.8325 67.049 67.5479 66.1797C65.4572 65.3839 63.4553 64.2734 61.6338 62.984C58.0214 60.4265 55.1209 57.1669 53.6537 54.27C53.7377 55.3258 54.2044 56.7473 54.8573 58.0151C52.8586 56.241 49.4286 52.9279 50.1711 47.7741C50.5506 45.1447 50.9642 42.5236 51.5845 40.2021C52.1459 38.0941 52.8801 36.2326 53.9133 34.837C56.0776 31.9165 61.7441 30.8519 62.0105 30.802C58.0708 30.7964 53.975 33.1715 53.8655 33.245C55.2447 31.0887 59.9098 29.4016 61.8572 29.872C64.0884 30.4119 68.1419 33.3116 71.9088 35.7322C70.2051 36.0609 68.5142 37.0679 68.4756 38.2602C68.6356 39.748 71.4067 41.4127 74.1894 41.8544C75.4416 42.054 76.6953 42.0057 77.715 41.5809C76.6567 42.7476 74.8893 43.5726 72.725 43.7702C72.1218 43.825 71.488 43.8293 70.8294 43.7802C69.9432 43.7147 69.0111 43.5466 68.0543 43.2659C65.3828 42.4793 62.5042 40.7966 59.7756 37.8841C61.0378 39.7073 61.8181 41.0466 62.2155 42.1794C62.485 42.9361 62.5822 43.5989 62.5368 44.2498C62.4166 45.9712 59.8835 46.7311 59.6204 46.8074C66.2706 47.7154 72.8297 49.7698 76.8383 59.3851C78.2171 54.2508 81.8139 52.0906 86.0578 52.64C85.2332 52.1241 83.5455 51.5651 81.331 51.9684C82.8937 50.1999 84.6085 49.2739 86.1844 48.7819L95.525 50.7613C95.2467 52.8712 94.137 55.8177 92.2908 54.8039C91.9257 54.6054 91.5598 54.3347 91.1187 54.1865C92.3111 55.1708 92.8215 56.0197 92.851 56.907C92.8892 58.1221 92.6296 59.5029 91.3078 60.6912C90.5768 61.3481 90.0767 61.263 89.6276 61.0534C89.4178 60.9556 89.2191 60.8306 89.0133 60.7411C89.0212 60.7523 89.6364 61.8815 88.7154 63.569C88.1783 64.5529 84.7754 65.8443 81.5715 66.7838C80.3217 67.1508 79.1018 67.4638 78.0944 67.6847C78.3437 67.7485 78.7128 67.8092 79.1531 67.8611C78.9433 78.6719 81.624 91.748 81.624 91.748C80.9496 85.9413 80.7043 69.5398 80.8321 67.9929C82.2324 68.0568 83.7597 68.0185 84.597 67.7813C86.489 67.2454 87.3052 67.81 87.267 70.4734C87.1714 77.0687 87.6237 89.2072 88.1572 100.685C88.6517 100.315 89.1419 99.9414 89.6276 99.562C89.7773 99.445 89.9262 99.3272 90.0751 99.2094C90.3797 84.2798 90.9068 68.9345 91.9488 63.8162C95.1069 60.6205 97.0252 56.1978 97.505 51.1814L119.444 55.8313L125.7 57.157L126.695 57.3682L127.383 56.9469C127.565 56.8355 131.859 54.1502 132.929 48.4489C133.948 43.016 131.012 38.7518 130.887 38.5729Z" fill="#183E4B"/>
</svg>
