<svg width="85" height="62" viewBox="0 0 85 62" fill="none" xmlns="http://www.w3.org/2000/svg">
<path d="M53.8637 0.461121C57.944 0.461121 61.8571 2.08199 64.7423 4.96717C67.6275 7.85234 69.2484 11.7655 69.2484 15.8457C69.2484 19.926 67.6275 23.8391 64.7423 26.7243C61.8571 29.6095 57.944 31.2304 53.8637 31.2304C49.7835 31.2304 45.8703 29.6095 42.9852 26.7243C40.1 23.8391 38.4791 19.926 38.4791 15.8457C38.4791 11.7655 40.1 7.85234 42.9852 4.96717C45.8703 2.08199 49.7835 0.461121 53.8637 0.461121ZM53.8637 7.76881C51.7216 7.76881 49.6672 8.61977 48.1525 10.1345C46.6378 11.6492 45.7868 13.7036 45.7868 15.8457C45.7868 17.9879 46.6378 20.0423 48.1525 21.557C49.6672 23.0717 51.7216 23.9227 53.8637 23.9227C56.0059 23.9227 58.0603 23.0717 59.575 21.557C61.0897 20.0423 61.9407 17.9879 61.9407 15.8457C61.9407 13.7036 61.0897 11.6492 59.575 10.1345C58.0603 8.61977 56.0059 7.76881 53.8637 7.76881ZM53.8637 35.0765C64.133 35.0765 84.633 40.1919 84.633 50.4611V61.9996H23.0945V50.4611C23.0945 40.1919 43.5945 35.0765 53.8637 35.0765ZM53.8637 42.3842C42.3253 42.3842 30.4022 47.9996 30.4022 50.4611V54.6919H77.3253V50.4611C77.3253 47.9996 65.2868 42.3842 53.8637 42.3842ZM15.4022 36.1534L5.78681 41.8842L8.40219 31.0765L0.0175781 23.8457L11.056 22.8842L15.4022 12.7304L19.6714 22.8842L30.7868 23.8457L22.3253 31.0765L24.8253 41.8842L15.4022 36.1534Z" fill="#AFFAF3"/>
</svg>
