<svg width="74" height="70" viewBox="0 0 74 70" fill="none" xmlns="http://www.w3.org/2000/svg">
<path d="M66.3335 22.3333H45.7562L49.8738 9.98765C50.6145 7.75831 50.2405 5.28698 48.8655 3.38031C47.4905 1.47365 45.2612 0.333313 42.9108 0.333313H37.0002C35.9112 0.333313 34.8808 0.817313 34.1805 1.65331L16.9472 22.3333H7.66683C3.6225 22.3333 0.333496 25.6223 0.333496 29.6666V62.6667C0.333496 66.711 3.6225 70 7.66683 70H56.4592C57.9511 69.995 59.4064 69.5374 60.6326 68.6876C61.8589 67.8378 62.7984 66.6358 63.3268 65.2407L73.4358 38.287C73.5893 37.8753 73.6676 37.4394 73.6668 37V29.6666C73.6668 25.6223 70.3778 22.3333 66.3335 22.3333ZM7.66683 29.6666H15.0002V62.6667H7.66683V29.6666ZM66.3335 36.3363L56.4592 62.6667H22.3335V27.3273L38.7162 7.66665H42.9182L37.1908 24.8376C37.0049 25.3888 36.953 25.9763 37.0396 26.5515C37.1261 27.1268 37.3484 27.673 37.6883 28.1451C38.0281 28.6172 38.4755 29.0015 38.9935 29.2661C39.5115 29.5307 40.0852 29.668 40.6668 29.6666H66.3335V36.3363Z" fill="#AFFAF3"/>
</svg>
